<?xml version="1.0" encoding="UTF-8" standalone="no"?>
<!-- Generator: Adobe Illustrator 19.0.0, SVG Export Plug-In . SVG Version: 6.00 Build 0)  -->

<svg
   xmlns:dc="http://purl.org/dc/elements/1.1/"
   xmlns:cc="http://creativecommons.org/ns#"
   xmlns:rdf="http://www.w3.org/1999/02/22-rdf-syntax-ns#"
   xmlns:svg="http://www.w3.org/2000/svg"
   xmlns="http://www.w3.org/2000/svg"
   xmlns:sodipodi="http://sodipodi.sourceforge.net/DTD/sodipodi-0.dtd"
   xmlns:inkscape="http://www.inkscape.org/namespaces/inkscape"
   version="1.1"
   id="Layer_1"
   x="0px"
   y="0px"
   viewBox="0 0 300 300"
   style="enable-background:new 0 0 300 300;"
   xml:space="preserve"
   sodipodi:docname="list.svg"
   inkscape:version="0.92.4 (5da689c313, 2019-01-14)"><metadata
   id="metadata43"><rdf:RDF><cc:Work
       rdf:about=""><dc:format>image/svg+xml</dc:format><dc:type
         rdf:resource="http://purl.org/dc/dcmitype/StillImage" /></cc:Work></rdf:RDF></metadata><defs
   id="defs41">
	
</defs><sodipodi:namedview
   pagecolor="#ffffff"
   bordercolor="#666666"
   borderopacity="1"
   objecttolerance="10"
   gridtolerance="10"
   guidetolerance="10"
   inkscape:pageopacity="0"
   inkscape:pageshadow="2"
   inkscape:window-width="1920"
   inkscape:window-height="986"
   id="namedview39"
   showgrid="false"
   inkscape:zoom="1.5733333"
   inkscape:cx="-103.07448"
   inkscape:cy="175.68509"
   inkscape:window-x="-11"
   inkscape:window-y="-11"
   inkscape:window-maximized="1"
   inkscape:current-layer="g4" />
<g
   style="fill:none;fill-opacity:1;stroke:#00dd00;stroke-width:3.5;stroke-miterlimit:4;stroke-dasharray:none;stroke-opacity:1"
   id="g4">
		<path
   style="fill:none;fill-opacity:1;stroke:#00dd00;stroke-width:3.5;stroke-miterlimit:4;stroke-dasharray:none;stroke-opacity:1"
   d="M 149.996,0 C 67.157,0 0.001,67.161 0.001,149.997 0.001,232.837 67.157,300 149.996,300 232.835,300 299.999,232.837 299.999,149.997 299.999,67.157 232.835,0 149.996,0 Z"
   id="path864" /><path
   style="fill:none;fill-opacity:1;stroke:#00dd00;stroke-width:3.5;stroke-miterlimit:4;stroke-dasharray:none;stroke-opacity:1"
   d="m 90.318,204.463 c -5.727,0 -10.361,-4.635 -10.361,-10.364 0,-5.724 4.635,-10.359 10.361,-10.359 5.724,0 10.361,4.635 10.361,10.359 0,5.729 -4.637,10.364 -10.361,10.364 z"
   id="path862" /><path
   style="fill:none;fill-opacity:1;stroke:#00dd00;stroke-width:3.5;stroke-miterlimit:4;stroke-dasharray:none;stroke-opacity:1"
   d="m 90.318,160.361 c -5.727,0 -10.361,-4.635 -10.361,-10.367 0,-5.724 4.635,-10.359 10.361,-10.359 5.724,0 10.361,4.635 10.361,10.359 0,5.733 -4.637,10.367 -10.361,10.367 z"
   id="path860" /><path
   style="fill:none;fill-opacity:1;stroke:#00dd00;stroke-width:3.5;stroke-miterlimit:4;stroke-dasharray:none;stroke-opacity:1"
   d="m 90.318,116.26 c -5.727,0 -10.361,-4.635 -10.361,-10.364 0,-5.724 4.635,-10.359 10.361,-10.359 5.724,0 10.361,4.635 10.361,10.359 0,5.729 -4.637,10.364 -10.361,10.364 z"
   id="path858" /><path
   style="fill:none;fill-opacity:1;stroke:#00dd00;stroke-width:3.5;stroke-miterlimit:4;stroke-dasharray:none;stroke-opacity:1"
   d="m 220.044,203.814 h -97.143 c -5.729,0 -10.374,-4.645 -10.374,-10.374 0,-5.729 4.645,-10.374 10.374,-10.374 h 97.143 c 5.729,0 10.374,4.645 10.374,10.374 0,5.729 -4.645,10.374 -10.374,10.374 z"
   id="path856" /><path
   style="fill:none;fill-opacity:1;stroke:#00dd00;stroke-width:3.5;stroke-miterlimit:4;stroke-dasharray:none;stroke-opacity:1"
   d="m 220.044,160.048 h -97.143 c -5.729,0 -10.374,-4.645 -10.374,-10.374 0,-5.729 4.645,-10.374 10.374,-10.374 h 97.143 c 5.729,0 10.374,4.645 10.374,10.374 0,5.728 -4.645,10.374 -10.374,10.374 z"
   id="path854" /><path
   style="fill:none;fill-opacity:1;stroke:#00dd00;stroke-width:3.59168911;stroke-miterlimit:4;stroke-dasharray:none;stroke-opacity:1"
   d="m 221.63335,111.786 h -99.68611 c -5.87898,0 -10.64558,-4.76676 -10.64558,-10.64595 0,-5.879184 4.7666,-10.645951 10.64558,-10.645951 h 99.68611 c 5.87898,0 10.64558,4.766767 10.64558,10.645951 0,5.87919 -4.7666,10.64595 -10.64558,10.64595 z"
   id="path2"
   inkscape:connector-curvature="0" />
	</g>
<g
   id="g8">
</g>
<g
   id="g10">
</g>
<g
   id="g12">
</g>
<g
   id="g14">
</g>
<g
   id="g16">
</g>
<g
   id="g18">
</g>
<g
   id="g20">
</g>
<g
   id="g22">
</g>
<g
   id="g24">
</g>
<g
   id="g26">
</g>
<g
   id="g28">
</g>
<g
   id="g30">
</g>
<g
   id="g32">
</g>
<g
   id="g34">
</g>
<g
   id="g36">
</g>
</svg>