<svg height="512" viewBox="0 0 64 64" width="512" xmlns="http://www.w3.org/2000/svg" xmlns:xlink="http://www.w3.org/1999/xlink"><linearGradient id="linear-gradient" gradientUnits="userSpaceOnUse" x1="1.062" x2="60.572" y1="32" y2="32"><stop offset="0" stop-color="#fec183"/><stop offset=".173" stop-color="#fea981"/><stop offset=".538" stop-color="#fe6b7b"/><stop offset="1" stop-color="#ff1572"/></linearGradient><linearGradient id="linear-gradient-2" x1="1.062" x2="60.572" xlink:href="#linear-gradient" y1="46.811" y2="46.811"/><linearGradient id="linear-gradient-3" x1="1.062" x2="60.572" xlink:href="#linear-gradient" y1="14.2" y2="14.2"/><linearGradient id="linear-gradient-4" x1="1.062" x2="60.572" xlink:href="#linear-gradient" y1="32.5" y2="32.5"/><linearGradient id="linear-gradient-5" x1="1.062" x2="60.572" xlink:href="#linear-gradient" y1="26.5" y2="26.5"/><linearGradient id="linear-gradient-6" x1="1.062" x2="60.572" xlink:href="#linear-gradient" y1="35.5" y2="35.5"/><linearGradient id="linear-gradient-7" x1="1.062" x2="60.572" xlink:href="#linear-gradient" y1="38.5" y2="38.5"/><linearGradient id="linear-gradient-8" x1="1.062" x2="60.572" xlink:href="#linear-gradient" y1="31.5" y2="31.5"/><linearGradient id="linear-gradient-9" x1="1.062" x2="60.572" xlink:href="#linear-gradient" y1="27" y2="27"/><linearGradient id="linear-gradient-11" x1="1.062" x2="60.572" xlink:href="#linear-gradient" y1="20" y2="20"/><linearGradient id="linear-gradient-12" x1="1.062" x2="60.572" xlink:href="#linear-gradient" y1="13" y2="13"/><linearGradient id="linear-gradient-13" x1="1.062" x2="60.572" xlink:href="#linear-gradient" y1="19" y2="19"/><linearGradient id="linear-gradient-15" x1="1.062" x2="60.572" xlink:href="#linear-gradient" y1="41" y2="41"/><g id="Gradient_outline" data-name="Gradient outline"><path d="m32 2a30 30 0 1 0 30 30 30.034 30.034 0 0 0 -30-30zm0 58a28 28 0 1 1 28-28 28.032 28.032 0 0 1 -28 28z" fill="url(#linear-gradient)"/><path d="m8.959 38.741-1.919.559a26.186 26.186 0 0 0 12.6 15.58l.952-1.76a24.166 24.166 0 0 1 -11.633-14.379z" fill="url(#linear-gradient-2)"/><path d="m54 22.4 1.833-.8a26.011 26.011 0 0 0 -23.833-15.6v2a24.01 24.01 0 0 1 22 14.4z" fill="url(#linear-gradient-3)"/><path d="m45 37a4.363 4.363 0 0 0 -.865-2.618 4 4 0 0 0 1.865-3.382c0-.042 0-.084 0-.126a4 4 0 0 0 -1-7.874 3.117 3.117 0 0 0 -1.348.322 5.188 5.188 0 0 0 -3.652-3.213c0-.037 0-.073 0-.109a5 5 0 0 0 -10 0v.129a4.082 4.082 0 0 0 -3.8 1.03 4.99 4.99 0 0 0 -6.749 7.341 4.952 4.952 0 0 0 .577 7.5 4.972 4.972 0 0 0 1.205 8.665 3.954 3.954 0 0 0 -.233 1.335 4 4 0 0 0 7.874 1 4.05 4.05 0 0 0 3.868-2.583 3.927 3.927 0 0 0 3.258 1.583 5.006 5.006 0 0 0 5-5 4 4 0 0 0 4-4zm-5.9 1.992a1 1 0 0 0 -.276 1.06 2.957 2.957 0 0 1 .176.948 3 3 0 0 1 -3 3c-.942 0-1.5-.392-2.132-1.5a.976.976 0 0 0 -.922-.5c-.122 0-.465 0-.706 0h-.24a1 1 0 0 0 -1 1 2 2 0 0 1 -2 2 1.958 1.958 0 0 1 -.677-.129 1 1 0 0 0 -1.34 1c0 .025.014.1.017.128a2 2 0 1 1 -3.467-1.345 1 1 0 0 0 -.686-1.675 2.981 2.981 0 0 1 -.238-5.936 1.035 1.035 0 0 0 .691-.5 1.123 1.123 0 0 0 .1-.887 1 1 0 0 0 -.818-.7 2.974 2.974 0 0 1 -1-5.575 1 1 0 0 0 0-1.756 2.991 2.991 0 1 1 3.886-4.325.982.982 0 0 0 .905.428 1 1 0 0 0 .823-.572 1.98 1.98 0 0 1 3.326-.438 3.522 3.522 0 0 0 .292.468c.022.05.043.1.062.155a1.009 1.009 0 0 0 .959.668l.165-.009c0-.007.026 0 .04 0a1.034 1.034 0 0 0 1-.989 1 1 0 0 0 -.465-.838c-.023-.024-.046-.047-.067-.07a3.965 3.965 0 0 0 -.279-.445 4.357 4.357 0 0 1 -.229-1.658 3 3 0 0 1 6 0 2.963 2.963 0 0 1 -.113.76 1 1 0 0 0 .187.881.974.974 0 0 0 .82.373.278.278 0 0 0 .106-.014 3.187 3.187 0 0 1 3 3.051 1 1 0 0 0 1.675.686 2.347 2.347 0 0 1 1.325-.737 2 2 0 0 1 .027 4l-.139-.016a1 1 0 0 0 -1.018 1.336 1.97 1.97 0 0 1 .13.68 2 2 0 0 1 -1.87 2 1.076 1.076 0 0 0 -.272 0 1 1 0 0 0 -.9.9 1.025 1.025 0 0 0 .542 1 .982.982 0 0 0 .314.095 2.176 2.176 0 0 1 1.186 2.005 1.99 1.99 0 0 1 -2.815 1.821 1 1 0 0 0 -1.085.171z" fill="url(#linear-gradient-4)"/><path d="m37 25a3 3 0 0 0 -3 3h2a1 1 0 0 1 2 0h2a3 3 0 0 0 -3-3z" fill="url(#linear-gradient-5)"/><path d="m34 34a3 3 0 0 0 -3 3h2a1 1 0 0 1 2 0h2a3 3 0 0 0 -3-3z" fill="url(#linear-gradient-6)"/><path d="m26 37a3 3 0 0 0 -3 3h2a1 1 0 0 1 2 0h2a3 3 0 0 0 -3-3z" fill="url(#linear-gradient-7)"/><path d="m32 30h-2a1 1 0 0 1 -2 0h-2a3 3 0 0 0 6 0z" fill="url(#linear-gradient-8)"/><path d="m25 26h2v2h-2z" fill="url(#linear-gradient-9)"/><path d="m38 31h2v2h-2z" fill="url(#linear-gradient)"/><path d="m12 32a4.978 4.978 0 0 0 3.71-8.321 4.915 4.915 0 0 0 3.145-5.824 5.059 5.059 0 1 0 -3.71-3.71 4.974 4.974 0 0 0 -4.855 8.176 4.989 4.989 0 0 0 1.71 9.679zm8-22a3 3 0 1 1 -3 3 3 3 0 0 1 3-3zm-6 6a3 3 0 1 1 -3 3 3 3 0 0 1 3-3zm-2 8a3 3 0 1 1 -3 3 3 3 0 0 1 3-3z" fill="url(#linear-gradient-11)"/><path d="m19 12h2v2h-2z" fill="url(#linear-gradient-12)"/><path d="m13 18h2v2h-2z" fill="url(#linear-gradient-13)"/><path d="m11 26h2v2h-2z" fill="url(#linear-gradient-9)"/><path d="m57.761 33.347-3.054-3.054a1 1 0 0 0 -1.545.162l-13 20a1 1 0 0 0 1.564 1.233l16.054-16.947a1 1 0 0 0 -.019-1.394zm-9.95 9.009 6.355-9.776 1.493 1.492z" fill="url(#linear-gradient-15)"/></g></svg>