<svg height="456pt" viewBox="0 0 456 456.96936" width="456pt" xmlns="http://www.w3.org/2000/svg"><path d="m.492188 104 104.003906-104 32 32-104.003906 104.003906zm0 0" fill="#b08149"/><path d="m16.484375 48-16 16 360 376 24-24zm0 0" fill="#f19601"/><path d="m64.484375 0-16 16 368 368 24-24zm0 0" fill="#f19601"/><path d="m360.484375 440 24-24 12 12c6.625 6.628906 6.625 17.371094 0 24-6.628906 6.625-17.371094 6.625-24 0zm0 0" fill="#edae00"/><path d="m416.484375 384 12 12c6.628906 6.625 17.371094 6.625 24 0 6.625-6.628906 6.625-17.371094 0-24l-12-12zm0 0" fill="#edae00"/><g fill="#e6364b"><path d="m360.484375 440 24-24-24-24-23.246094 24zm0 0"/><path d="m416.484375 384 24-24-24.503906-23.75-23.496094 23.75zm0 0"/></g></svg>