<svg id="Capa_1" enable-background="new 0 0 497 497" height="512" viewBox="0 0 497 497" width="512" xmlns="http://www.w3.org/2000/svg"><g><path d="m248.5 0c-42.532 0-82.404 11.377-116.75 31.246l15 25.986 101.75 236.268h233.5v-60c0-128.958-104.542-233.5-233.5-233.5z" fill="#ff9a42"/><path d="m248.5 30c-37.068 0-71.817 9.915-101.75 27.231l101.75 236.269h203.5v-60c0-112.39-91.11-203.5-203.5-203.5z" fill="#ffba48"/><path d="m248.5 60c-31.603 0-61.23 8.454-86.75 23.217l86.75 210.283h173.5v-60c0-95.821-77.679-173.5-173.5-173.5z" fill="#ffd185"/><path d="m248.5 90c-26.139 0-50.643 6.992-71.75 19.202l71.75 184.298h143.5v-60c0-79.253-64.247-143.5-143.5-143.5z" fill="#ffba48"/><path d="m248.5 120c-20.674 0-40.055 5.53-56.75 15.188l56.75 158.312h113.5v-60c0-62.684-50.816-113.5-113.5-113.5z" fill="#ffd185"/><path d="m248.5 150c-15.21 0-29.457 4.087-41.739 11.192l41.739 132.308h83.5v-60c0-46.116-37.384-83.5-83.5-83.5z" fill="#ffba48"/><path d="m248.5 180c-9.745 0-18.874 2.619-26.743 7.171l26.743 106.329h53.5v-60c0-29.547-23.953-53.5-53.5-53.5z" fill="#ffd185"/><path d="m131.75 31.246c-9.821 5.682-19.191 12.058-28.04 19.062v243.192h144.79v-60c0-86.427-46.959-161.881-116.75-202.254z" fill="#ffe8c2"/><path d="m103.71 50.308c-8.581 6.791-16.67 14.176-24.213 22.086v221.106h139.003v-60c0-80.588-46.847-150.23-114.79-183.192z" fill="#ffd185"/><path d="m79.497 72.394c-7.336 7.693-14.153 15.886-20.393 24.523v196.583h129.396v-60c0-73.027-45.122-135.509-109.003-161.106z" fill="#ffe8c2"/><path d="m59.104 96.916c-6.08 8.416-11.611 17.254-16.545 26.46v170.124h115.941v-60c0-63.864-41.724-117.974-99.396-136.584z" fill="#ffd185"/><path d="m42.559 123.377c-4.817 8.988-9.062 18.327-12.688 27.97v142.153h98.629v-60c0-53.179-36.576-97.809-85.941-110.123z" fill="#ffe8c2"/><path d="m29.871 151.347c-3.533 9.396-6.477 19.08-8.788 29.007v113.146h77.417v-60c0-41.037-29.612-75.135-68.629-82.153z" fill="#ffd185"/><path d="m21.084 180.354c-3.975 17.073-6.084 34.863-6.084 53.146v60h53.5v-60c0-27.489-20.735-50.124-47.416-53.146z" fill="#ffe8c2"/><path d="m317 382v115h30c8.284 0 15-6.716 15-15v-100z" fill="#b3b3b3"/><path d="m332 482v-100h-197v100c0 8.284 6.716 15 15 15h167c8.284 0 15-6.716 15-15z" fill="#ccc"/><path d="m482 323.5 12.663-7.5c.8-4.937 1.409-9.937 1.799-15l-14.462-7.5 15-7.5v-22.5h-30l-180 203.5h30c84.231 0 154.94-57.86 174.573-136z" fill="#ccc"/><path d="m0 263.5v22.5l15 7.5-14.462 7.5c.39 5.063.999 10.063 1.799 15l12.663 7.5-9.573 7.5c19.633 78.14 90.342 136 174.573 136h107c99.411 0 180-80.589 180-180v-23.5z" fill="#ebebeb"/><path d="m464.663 316-13.09 7.5 10 7.5h30c1.237-4.922 2.268-9.926 3.09-15z" fill="#4271db"/><path d="m5.427 331h456.147c1.237-4.922 2.268-9.926 3.09-15h-462.327c.822 5.074 1.853 10.078 3.09 15z" fill="#3992e3"/><path d="m467 286-10.25 7.49 9.711 7.51h30c.355-4.62.538-9.289.538-14v-1z" fill="#4271db"/><path d="m467 286h-467v1c0 4.711.183 9.38.538 14h465.924c.355-4.62.538-9.289.538-14z" fill="#3992e3"/></g></svg>