<svg id="Layer_5" enable-background="new 0 0 64 64" height="512" viewBox="0 0 64 64" width="512" xmlns="http://www.w3.org/2000/svg"><g><g><g><path d="m32 16h-4c0-3.31-2.69-6-6-6s-6 2.69-6 6c0 3.1 2.35 5.65 5.36 5.97-.29 1.31-.68 2.6-1.15 3.87-4.68-.85-8.21-4.93-8.21-9.84 0-5.52 4.48-10 10-10s10 4.48 10 10z" fill="#fc6e51"/></g><g><path d="m22 16v.38c0 1.89-.23 3.76-.64 5.59-3.01-.32-5.36-2.87-5.36-5.97z" fill="#ff826e"/></g><g><path d="m22 10v6h-6c0-3.31 2.69-6 6-6z" fill="#ff826e"/></g><g><path d="m28 16h-6v-6c3.31 0 6 2.69 6 6z" fill="#ff826e"/></g><g><path d="m50 56c0 .85.18 1.67.5 2.4-.92 2.12-3.03 3.6-5.5 3.6-2.11 0-3.96-1.09-5.03-2.73.02-.09.03-.18.03-.27 0-.45-.27-.88-.75-1.27-.16-.55-.25-1.13-.25-1.73 0-3 2.21-5.49 5.09-5.93-.06.3-.09.61-.09.93 0 2.76 2.24 5 5 5 .34 0 .67-.03.99-.1z" fill="#b4dd7f"/></g><g><path d="m50.5 58.4c-.32-.73-.5-1.55-.5-2.4l-.01-.1c2.29-.46 4.01-2.48 4.01-4.9 0-.22-.01-.43-.05-.64.64-.23 1.33-.36 2.05-.36 3.31 0 6 2.69 6 6s-2.69 6-6 6c-2.46 0-4.58-1.48-5.5-3.6z" fill="#b4dd7f"/></g><g><path d="m53.95 50.36c.04.21.05.42.05.64 0 2.42-1.72 4.44-4.01 4.9-.32.07-.65.1-.99.1-2.76 0-5-2.24-5-5 0-.32.03-.63.09-.93.43-2.32 2.47-4.07 4.91-4.07 2.54 0 4.64 1.9 4.95 4.36z" fill="#a0d468"/></g><g><path d="m24 58.23c-5.03 5.03-13.19 5.03-18.23 0-5.03-5.04-5.03-13.2 0-18.23l2.76 2.76c-1.56 1.62-2.53 3.81-2.53 6.24 0 .8.1 1.57.3 2.31.82 3.11 3.28 5.57 6.39 6.39.74.2 1.51.3 2.31.3 2.43 0 4.62-.97 6.24-2.53z" fill="#fc6e51"/></g><g><path d="m14.82 49.05-8.52 2.26c-.2-.74-.3-1.51-.3-2.31 0-2.43.97-4.62 2.53-6.24z" fill="#ff826e"/></g><g><path d="m14.95 49.18 6.29 6.29c-1.62 1.56-3.81 2.53-6.24 2.53-.8 0-1.57-.1-2.31-.3z" fill="#ff826e"/></g><g><path d="m14.95 49.18-2.26 8.52c-3.11-.82-5.57-3.28-6.39-6.39l8.52-2.26z" fill="#ff826e"/></g><g><path d="m39.25 57.73c.48.39.75.82.75 1.27 0 .09-.01.18-.03.27-.36 1.53-3.79 2.73-7.97 2.73-4.42 0-8-1.34-8-3 0-1.24 2.01-2.31 4.89-2.76h.11v1.76h6v-1.78c1.88.28 3.4.83 4.25 1.51z" fill="#aab2bd"/></g><g><path d="m35 56.22v1.78h-6v-1.76-8.56c.46.1.92.18 1.39.23 1.6.18 3.15.09 4.61-.23z" fill="#ccd1d9"/></g><g><path d="m23 29c0 1.24.75 2.31 1.83 2.76l-.05.13c-1.3-.54-2.57-.89-3.78-.89-.85 0-1.79.17-2.76.47.2-1.12.53-2.18.98-3.19.36-.8.69-1.61.99-2.44.47-1.27.86-2.56 1.15-3.87.41-1.83.64-3.7.64-5.59v-.38h6 4 7l-6.88 6.88c-.54-.54-1.29-.88-2.12-.88-1.66 0-3 1.34-3 3 0 .47.11.92.31 1.31-.4-.19-.84-.31-1.31-.31-1.66 0-3 1.34-3 3z" fill="#e6e9ed"/></g><g><path d="m26 32c1.66 0 3-1.34 3-3 0-.47-.12-.91-.31-1.31.39.2.84.31 1.31.31 1.66 0 3-1.34 3-3 0-.83-.34-1.58-.88-2.12l6.88-6.88h3v.04c0 4.06.75 8.13 2.56 11.77.92 1.86 1.44 3.97 1.44 6.19 0-2-4-3-9-3-2.52 0-5.55 1.52-7.93 3.04-1.44-.79-2.89-1.58-4.29-2.15l.05-.13c.36.16.75.24 1.17.24z" fill="#e6e9ed"/></g><g><path d="m37 37c3.88 0 8.69-.94 8.99-2.82-.08 6.62-4.76 12.14-10.99 13.5-1.46.32-3.01.41-4.61.23-.47-.05-.93-.13-1.39-.23-5.66-1.24-10.12-5.98-10.88-11.8-.2-1.52-.15-3.01.12-4.41.97-.3 1.91-.47 2.76-.47 1.21 0 2.48.35 3.78.89 1.4.57 2.85 1.36 4.29 2.15 2.73 1.49 5.45 2.96 7.93 2.96z" fill="#69d6f4"/></g><g><path d="m46 34c0 .06 0 .12-.01.18-.3 1.88-5.11 2.82-8.99 2.82-2.48 0-5.2-1.47-7.93-2.96 2.38-1.52 5.41-3.04 7.93-3.04 5 0 9 1 9 3z" fill="#4fc1e9"/></g><g><path d="m28.69 27.69c-.61-.28-1.1-.77-1.38-1.38-.2-.39-.31-.84-.31-1.31 0-1.66 1.34-3 3-3 .83 0 1.58.34 2.12.88s.88 1.29.88 2.12c0 1.66-1.34 3-3 3-.47 0-.92-.11-1.31-.31z" fill="#fcd770"/></g><g><path d="m28.69 27.69c.19.4.31.84.31 1.31 0 1.66-1.34 3-3 3-.42 0-.81-.08-1.17-.24-1.08-.45-1.83-1.52-1.83-2.76 0-1.66 1.34-3 3-3 .47 0 .91.12 1.31.31.28.61.77 1.1 1.38 1.38z" fill="#fcd770"/></g></g><path d="m56 49c-.441 0-.875.048-1.303.128-.789-2.394-3.042-4.128-5.697-4.128-2.689 0-4.97 1.777-5.73 4.219-3.033.777-5.246 3.551-5.268 6.734-.591-.223-1.259-.411-2.002-.562v-6.942c2.206-.61 4.264-1.716 5.996-3.265 3.18-2.844 5.004-6.92 5.004-11.184 0-2.328-.521-4.56-1.548-6.635-1.627-3.286-2.452-7.097-2.452-11.326v-1.039h-1.586l7.465-7.465c.723-.723 1.121-1.684 1.121-2.706 0-2.112-1.718-3.829-3.828-3.829-1.023 0-1.984.398-2.707 1.121l-.465.464c-.645.645-1 1.502-1 2.415s.355 1.77 1 2.414l.293.293 1.414-1.414-.293-.293c-.268-.267-.414-.622-.414-1s.146-.733.414-1l.465-.465c.341-.34.811-.535 1.293-.535 1.008 0 1.828.82 1.828 1.829 0 .488-.19.948-.535 1.293l-8.879 8.878h-5.637c-.507-5.598-5.221-10-10.949-10-6.065 0-11 4.935-11 11 0 4.924 3.248 9.178 7.872 10.542-.177.44-.362.881-.561 1.323-1.138 2.529-1.546 5.344-1.18 8.142.775 5.944 5.193 10.868 10.869 12.448v6.937c-1.687.343-2.997.883-3.851 1.568l-18.375-18.374-.707.707c-5.414 5.415-5.414 14.225 0 19.64 2.707 2.707 6.264 4.061 9.82 4.061 2.98 0 5.953-.964 8.434-2.865 1.095 1.887 4.901 2.871 8.679 2.871 3.219 0 6.456-.715 8.024-2.093 1.302 1.323 3.076 2.093 4.976 2.093 2.188 0 4.193-1.019 5.499-2.685 1.283 1.631 3.269 2.685 5.501 2.685 3.859 0 7-3.14 7-7s-3.141-7-7-7zm-7-2c2.206 0 4 1.794 4 4s-1.794 4-4 4-4-1.794-4-4 1.794-4 4-4zm-12-11c-1.781 0-3.838-.921-5.908-2.009 2.339-1.307 4.36-1.991 5.908-1.991 5.457 0 8 1.193 8 2 0 .687-3.115 2-8 2zm4.014-19c.118 4.16 1.007 7.941 2.646 11.253.465.939.803 1.917 1.027 2.923-2.314-1.019-5.791-1.176-7.687-1.176-2.165 0-4.843.968-7.967 2.879-.306-.167-.614-.332-.922-.496 1.13-.707 1.889-1.954 1.889-3.383 2.206 0 4-1.794 4-4 0-.74-.215-1.424-.567-2.019l5.981-5.981zm-13.135 11.378c.072.207.121.414.121.622 0 1.103-.897 2-2 2s-2-.897-2-2c0-1.313 1.331-2.314 2.627-1.87.32.505.747.929 1.252 1.248zm4.121-3.378c0 1.103-.897 2-2 2s-2-.897-2-2 .897-2 2-2 2 .897 2 2zm.019-3.433c-.595-.352-1.279-.567-2.019-.567-2.206 0-4 1.794-4 4-2.206 0-4 1.794-4 4 0 .383.071.747.173 1.098-.394-.058-.785-.098-1.173-.098-.437 0-.907.042-1.402.122.152-.488.328-.969.538-1.437 1.801-4.002 2.761-7.93 2.856-11.686h.008 13.586zm-9.019-10.466c1.956.399 3.5 1.943 3.899 3.899h-3.899zm-2 3.899h-3.899c.399-1.956 1.943-3.5 3.899-3.899zm-.019 2c-.034 1.243-.167 2.508-.406 3.792-1.772-.521-3.105-1.984-3.47-3.792zm-7.981-1c0-4.962 4.037-9 9-9 4.625 0 8.442 3.507 8.941 8h-2.021c-.488-3.387-3.401-6-6.92-6-3.859 0-7 3.14-7 7 0 3.202 2.141 5.922 5.132 6.743-.167.637-.354 1.277-.569 1.922-3.849-1.075-6.563-4.591-6.563-8.665zm6.114 19.749c-.152-1.163-.146-2.329.005-3.469.691-.169 1.336-.28 1.881-.28 2.245 0 4.927 1.463 7.521 2.878 2.814 1.535 5.724 3.122 8.479 3.122 2.287 0 5.546-.322 7.715-1.305-.57 2.68-1.977 5.142-4.052 6.998-2.794 2.499-6.407 3.644-10.166 3.223-5.838-.653-10.625-5.35-11.383-11.167zm11.16 13.154c.564.063 1.128.094 1.689.094.685 0 1.363-.062 2.036-.153v8.156h-4v-8.14c.093.012.183.033.275.043zm-23.274.097c0-1.736.563-3.393 1.592-4.768l4.294 4.294-5.807 1.54c-.046-.35-.079-.704-.079-1.066zm6.592 1.408-1.592 6.003c-2-.813-3.598-2.411-4.411-4.411zm1.882.706 4.294 4.294c-1.375 1.028-3.032 1.592-4.768 1.592-.362 0-.716-.033-1.065-.079zm-8.993 6.405c-4.396-4.397-4.622-11.41-.678-16.075l1.357 1.357c-1.399 1.762-2.16 3.929-2.16 6.199 0 5.514 4.486 10 10 10 2.269 0 4.436-.761 6.199-2.161l1.357 1.357c-4.665 3.942-11.677 3.72-16.075-.677zm25.519 3.481c-4.547 0-7-1.419-7-2 0-.332.921-1.085 3-1.572v1.572h8v-1.57c2.075.485 3 1.234 3 1.57 0 .581-2.453 2-7 2zm13 0c-1.59 0-3.059-.753-4.003-2.019-.006-.649-.299-1.244-.837-1.768-.099-.395-.16-.8-.16-1.213 0-2.016 1.24-3.791 3.022-4.57.222 3.108 2.815 5.57 5.978 5.57.027 0 .053-.004.079-.004.066.462.177.909.329 1.337-.862 1.629-2.541 2.667-4.408 2.667zm11 0c-2.542 0-4.624-1.914-4.937-4.373 2.26-.832 3.884-2.981 3.931-5.515.33-.068.665-.112 1.006-.112 2.757 0 5 2.243 5 5s-2.243 5-5 5z"/></g></svg>