<svg id="Capa_1" enable-background="new 0 0 512 512" height="512" viewBox="0 0 512 512" width="512" xmlns="http://www.w3.org/2000/svg"><g><path d="m479.839 218.954c4.755-6.534 6.875-14.956 5.174-23.507s-6.882-15.521-13.776-19.738c3.389-7.336 3.825-16.01.488-24.065-3.336-8.055-9.778-13.88-17.362-16.671 1.892-7.857.628-16.449-4.216-23.698s-12.298-11.705-20.281-12.964c.323-8.075-2.593-16.255-8.758-22.42s-14.345-9.081-22.42-8.758c-1.258-7.983-5.715-15.437-12.964-20.281s-15.841-6.108-23.698-4.216c-2.792-7.584-8.616-14.026-16.671-17.362s-16.729-2.9-24.065.488c-4.217-6.893-11.187-12.075-19.738-13.776-7.438-1.479-14.777-.066-20.862 3.456l-24.69 315.558 203.5-60c16.569 0 30-13.431 30-30 0-8.719-3.722-16.565-9.661-22.046z" fill="#ffd185"/><path d="m449.839 218.954c4.755-6.534 6.875-14.956 5.174-23.507s-6.882-15.521-13.776-19.738c3.389-7.336 3.825-16.01.488-24.065-3.336-8.055-9.778-13.88-17.362-16.671 1.892-7.857.628-16.449-4.216-23.698s-12.298-11.705-20.281-12.964c.323-8.075-2.593-16.255-8.758-22.42s-14.345-9.081-22.42-8.758c-1.258-7.983-5.715-15.437-12.964-20.281s-15.841-6.108-23.698-4.216c-2.792-7.584-8.616-14.026-16.671-17.362s-16.729-2.9-24.065.488c-2.585-4.225-6.217-7.788-10.6-10.32-.911.527-1.795 1.099-2.645 1.718-5.48-5.938-13.326-9.66-22.045-9.66s-16.565 3.722-22.046 9.661c-6.534-4.755-14.956-6.875-23.507-5.174s-15.521 6.882-19.738 13.776c-7.336-3.389-16.01-3.825-24.065-.488-8.055 3.336-13.88 9.778-16.671 17.362-7.857-1.892-16.449-.628-23.698 4.216s-11.705 12.298-12.964 20.281c-8.075-.323-16.255 2.593-22.42 8.758s-9.081 14.345-8.758 22.42c-7.983 1.258-15.437 5.715-20.281 12.964s-6.108 15.841-4.216 23.698c-7.584 2.792-14.026 8.616-17.362 16.671s-2.9 16.728.488 24.065c-6.893 4.217-12.075 11.187-13.776 19.738s.419 16.973 5.174 23.507c-5.938 5.48-9.66 13.326-9.66 22.045 0 16.569 13.431 30 30 30l203.5 60 173.5-60c16.569 0 30-13.431 30-30 0-8.719-3.722-16.565-9.661-22.046z" fill="#ffe8c2"/><path d="m324.5 389.5v115h30c8.284 0 15-6.716 15-15v-100z" fill="#b3b3b3"/><path d="m339.5 489.5v-100h-197v100c0 8.284 6.716 15 15 15h167c8.284 0 15-6.716 15-15z" fill="#ccc"/><path d="m474.5 271-180 203.5h30c99.411 0 180-80.589 180-180v-23.5z" fill="#ccc"/><path d="m7.5 271v23.5c0 99.411 80.589 180 180 180h107c99.411 0 180-80.589 180-180v-23.5z" fill="#ebebeb"/><path d="m11.206 323.5h489.589v15h-489.589z" fill="#4271db"/><path d="m7.629 293.5h496.741v15h-496.741z" fill="#4271db"/><path d="m22.5 248.5c4.142 0 7.5-3.358 7.5-7.5 0-6.349 2.574-12.221 7.248-16.535 2.796-2.581 3.216-6.847.978-9.924-3.742-5.143-5.121-11.404-3.882-17.631 1.238-6.227 4.908-11.484 10.334-14.803 3.246-1.986 4.49-6.088 2.895-9.543-2.667-5.774-2.798-12.185-.368-18.05 2.43-5.866 7.055-10.306 13.024-12.503 3.571-1.315 5.592-5.095 4.701-8.795-1.49-6.183-.367-12.496 3.16-17.774 3.528-5.279 8.93-8.732 15.213-9.722 3.759-.593 6.478-3.906 6.326-7.708-.254-6.355 2.078-12.328 6.567-16.817s10.468-6.821 16.817-6.567c3.778.131 7.115-2.567 7.708-6.326.991-6.283 4.443-11.686 9.722-15.213s11.591-4.65 17.774-3.16c3.696.889 7.48-1.129 8.795-4.701 2.197-5.969 6.637-10.594 12.503-13.024 5.866-2.429 12.276-2.299 18.05.368 3.454 1.595 7.556.352 9.543-2.895 3.319-5.426 8.576-9.096 14.803-10.334 6.227-1.239 12.489.141 17.631 3.882 3.077 2.238 7.342 1.819 9.924-.978 4.313-4.673 10.185-7.247 16.534-7.247s12.221 2.574 16.535 7.248c2.582 2.797 6.848 3.215 9.924.978 5.143-3.742 11.403-5.121 17.631-3.882 6.227 1.238 11.484 4.908 14.803 10.334 1.987 3.247 6.088 4.492 9.543 2.895 5.774-2.667 12.185-2.798 18.05-.368 5.866 2.43 10.306 7.055 12.503 13.024 1.315 3.571 5.097 5.589 8.795 4.701 6.182-1.49 12.495-.367 17.774 3.16s8.731 8.93 9.722 15.213c.593 3.759 3.936 6.464 7.708 6.326 6.357-.251 12.327 2.078 16.817 6.567 4.489 4.489 6.821 10.461 6.567 16.817-.152 3.802 2.567 7.116 6.326 7.708 6.283.991 11.686 4.443 15.213 9.722s4.65 11.591 3.16 17.774c-.891 3.7 1.129 7.48 4.701 8.795 5.969 2.197 10.594 6.637 13.024 12.503 2.43 5.865 2.299 12.275-.368 18.05-1.596 3.455-.352 7.557 2.895 9.543 5.426 3.319 9.096 8.576 10.334 14.803 1.239 6.227-.14 12.488-3.882 17.631-2.239 3.077-1.819 7.343.978 9.924 4.673 4.313 7.247 10.185 7.247 16.534 0 4.142 3.358 7.5 7.5 7.5s7.5-3.358 7.5-7.5c0-8.34-2.813-16.433-7.863-22.962 3.679-7.389 4.859-15.875 3.232-24.055s-5.965-15.568-12.191-20.987c2.167-7.965 1.669-16.518-1.522-24.223s-8.888-14.105-16.052-18.206c.571-8.234-1.586-16.525-6.22-23.46-4.633-6.934-11.468-12.1-19.294-14.724-1.046-8.188-4.779-15.899-10.677-21.796-5.897-5.897-13.609-9.63-21.796-10.677-2.624-7.826-7.79-14.661-14.724-19.294-6.936-4.634-15.225-6.792-23.46-6.22-4.1-7.164-10.5-12.86-18.206-16.052-7.706-3.191-16.257-3.688-24.223-1.522-5.418-6.227-12.807-10.564-20.986-12.191s-16.666-.448-24.055 3.232c-6.53-5.05-14.623-7.863-22.963-7.863s-16.433 2.813-22.962 7.863c-7.39-3.68-15.878-4.859-24.055-3.232-8.18 1.627-15.568 5.964-20.987 12.191-7.966-2.167-16.518-1.669-24.223 1.522s-14.105 8.888-18.206 16.052c-8.229-.571-16.526 1.586-23.46 6.22-6.934 4.633-12.1 11.468-14.724 19.294-8.187 1.047-15.9 4.78-21.796 10.677-5.897 5.897-9.63 13.608-10.677 21.796-7.826 2.623-14.661 7.789-19.294 14.724-4.634 6.935-6.791 15.226-6.22 23.46-7.164 4.1-12.86 10.5-16.052 18.206s-3.689 16.258-1.522 24.223c-6.227 5.418-10.564 12.807-12.191 20.986-1.627 8.18-.447 16.666 3.232 24.055-5.05 6.53-7.863 14.623-7.863 22.963 0 4.142 3.358 7.5 7.5 7.5z"/><ellipse cx="81.849" cy="168.864" rx="7.5" ry="7.5" transform="matrix(.982 -.189 .189 .982 -30.398 18.482)"/><circle cx="256" cy="52.5" r="7.5"/><circle cx="286" cy="82.5" r="7.5"/><path d="m383.986 102.407c-2.929 2.929-2.929 7.678 0 10.607s7.678 2.929 10.607 0 2.929-7.678 0-10.607-7.678-2.929-10.607 0z"/><path d="m504.5 263.5h-497c-4.142 0-7.5 3.358-7.5 7.5v23.5c0 85.169 57.085 157.247 135 180.009v14.991c0 12.407 10.093 22.5 22.5 22.5h197c12.407 0 22.5-10.093 22.5-22.5v-14.991c77.915-22.761 135-94.839 135-180.009v-23.5c0-4.142-3.358-7.5-7.5-7.5zm-7.5 31c0 95.117-77.383 172.5-172.5 172.5h-107c-4.142 0-7.5 3.358-7.5 7.5s3.358 7.5 7.5 7.5h107c12.839 0 25.38-1.3 37.5-3.77v11.27c0 4.136-3.364 7.5-7.5 7.5h-197c-4.136 0-7.5-3.364-7.5-7.5v-11.27c12.12 2.47 24.661 3.77 37.5 3.77 4.142 0 7.5-3.358 7.5-7.5s-3.358-7.5-7.5-7.5c-95.117 0-172.5-77.383-172.5-172.5v-16h482z"/></g></svg>