<svg height="496pt" viewBox="0 0 496 496" width="496pt" xmlns="http://www.w3.org/2000/svg"><path d="m456 424c-9.398438 37.617188-43.199219 64-81.96875 64h-252.0625c-38.769531 0-72.570312-26.382812-81.96875-64zm0 0" fill="#e6e9ed"/><path d="m45.832031 440h404.335938c2.425781-5.0625 4.433593-10.382812 5.832031-16h-416c1.398438 5.617188 3.40625 10.9375 5.832031 16zm0 0" fill="#ccd1d9"/><path d="m472 392h-448c-8.839844 0-16 7.160156-16 16s7.160156 16 16 16h448c8.839844 0 16-7.160156 16-16s-7.160156-16-16-16zm0 0" fill="#e6e9ed"/><path d="m472 392s-10.054688-22.34375-30.574219-50.328125l-65.425781-53.671875-64-48-98.304688-5.199219c-17.832031 2.960938-34.375 8.121094-49.632812 14.824219l-99.238281 78.757812c-27.433594 33.847657-40.824219 63.617188-40.824219 63.617188zm0 0" fill="#ecc19c"/><path d="m441.425781 341.671875-65.425781-53.671875-34.472656-25.855469c-8.480469 11.816407-13.527344 26.238281-13.527344 41.855469 0 39.703125 32.296875 72 72 72 19.777344 0 37.710938-8.023438 50.734375-20.976562-2.824219-4.246094-5.910156-8.710938-9.308594-13.351563zm0 0" fill="#cf9e76"/><path d="m213.695312 234.800781c-9.101562 1.511719-17.855468 3.605469-26.28125 6.175781 17.960938 9.734376 38.761719 15.023438 60.378907 15.023438h24.71875l28.671875 34.398438c7.199218 8.640624 17.785156 13.601562 29.023437 13.601562 15.96875 0 29.585938-9.984375 35.105469-24.015625l-53.3125-39.984375zm0 0" fill="#cf9e76"/><path d="m352 218.207031v-3.574219c0-12.503906-10.128906-22.632812-22.625-22.632812-6 0-11.757812 2.382812-16 6.625l-32.039062 32.039062c-17.527344-11.808593-45.824219-33.214843-56.457032-54.671874-15.855468-32-17.230468-64-56.871094-64-16.984374 0-23.855468 9.632812-24 32.304687-.144531 23.816406 10.136719 46.351563 26.3125 63.625 19.847657 21.214844 48.40625 32.078125 77.464844 32.078125h32.214844l33.464844 40.160156c4.144531 4.96875 10.269531 7.839844 16.742187 7.839844 12.03125 0 21.792969-9.761719 21.792969-21.792969v-4.414062c0-12.03125-9.761719-21.792969-21.792969-21.792969 12.03125 0 21.792969-9.761719 21.792969-21.792969zm0 0" fill="#fc6e51"/><path d="m224.871094 176c-3.917969-7.902344-6.949219-15.808594-9.894532-23.230469l-5.375 4.03125c-16.617187 12.464844-36.832031 19.199219-57.601562 19.199219h-1.910156c4.582031 11.742188 11.503906 22.617188 20.222656 31.929688 5.917969 6.316406 12.671875 11.597656 19.917969 16.070312h1.769531l4.015625-1.007812c17.390625-4.351563 33.96875-11.480469 49.082031-21.105469l.03125-.023438c-8.425781-8.175781-15.871094-17.007812-20.257812-25.863281zm0 0" fill="#e9573f"/><path d="m456 304c0 30.929688-25.070312 56-56 56s-56-25.070312-56-56 25.070312-56 56-56 56 25.070312 56 56zm0 0" fill="#fcd770"/><path d="m64.824219 328.375c-3.703125 4.570312-7.128907 9.058594-10.320313 13.417969 14.480469 20.648437 38.417969 34.207031 65.496094 34.207031 44.113281 0 80-35.886719 80-80 0-20.136719-7.535156-38.503906-19.855469-52.585938-5.488281 1.898438-10.878906 3.921876-16.074219 6.203126zm0 0" fill="#cf9e76"/><path d="m184 296c0 35.347656-28.652344 64-64 64s-64-28.652344-64-64 28.652344-64 64-64 64 28.652344 64 64zm0 0" fill="#fcd770"/><path d="m152 296c0 17.671875-14.328125 32-32 32s-32-14.328125-32-32 14.328125-32 32-32 32 14.328125 32 32zm0 0" fill="#b4dd7f"/><path d="m400 328c-13.199219 0-24-10.800781-24-24s10.800781-24 24-24 24 10.800781 24 24-10.800781 24-24 24zm0 0" fill="#ffeaa7"/><path d="m24 392h448s-2.785156-6.152344-8.351562-16h-431.296876c-5.566406 9.839844-8.351562 16-8.351562 16zm0 0" fill="#dfb28b"/><path d="m477.34375 384.648438c-3.574219-7.199219-12.105469-23.265626-25.894531-42.746094 7.847656-10.621094 12.550781-23.710938 12.550781-37.902344 0-35.289062-28.710938-64-64-64-15.535156 0-29.792969 5.574219-40.894531 14.824219-1.394531-5.761719-4.402344-10.902344-8.609375-14.824219 5.847656-5.441406 9.503906-13.199219 9.503906-21.792969v-3.574219c0-16.898437-13.742188-30.632812-30.625-30.632812-8.183594 0-15.871094 3.183594-21.65625 8.976562l-27.335938 27.335938c-16.765624-11.769531-39.511718-30.03125-48.34375-47.855469-3.367187-6.785156-6.078124-13.65625-8.703124-20.296875-9.359376-23.679687-19.03125-48.160156-55.335938-48.160156-31.753906 0-31.9375 30.296875-32 40.257812-.152344 24.832032 9.96875 49.382813 28.480469 69.140626 6.992187 7.472656 15.183593 13.761718 24.128906 18.9375-7.769531 2.222656-15.425781 4.929687-22.96875 8.023437-12.433594-10.214844-28.328125-16.359375-45.640625-16.359375-39.703125 0-72 32.304688-72 72 0 11.296875 2.6875 21.945312 7.34375 31.472656-20.191406 25.6875-32.253906 48.246094-36.6875 57.175782-10.664062 2.441406-18.65625 11.960937-18.65625 23.351562 0 13.230469 10.769531 24 24 24h10.03125c12.273438 37.96875 47.542969 64 87.9375 64h252.0625c40.394531 0 75.664062-26.03125 87.9375-64h10.03125c13.230469 0 24-10.769531 24-24 0-11.390625-7.992188-20.910156-18.65625-23.351562zm-77.34375-128.648438c26.472656 0 48 21.527344 48 48s-21.527344 48-48 48-48-21.527344-48-48 21.527344-48 48-48zm-74.207031-8h4.421875c7.601562 0 13.785156 6.183594 13.785156 13.792969v4.414062c0 7.609375-6.183594 13.792969-13.800781 13.792969-4.101563 0-7.960938-1.808594-10.582031-4.960938l-22.539063-27.039062zm-6.761719-43.71875c2.730469-2.722656 6.488281-4.28125 10.34375-4.28125 8.066406 0 14.625 6.558594 14.625 14.632812v3.574219c0 7.609375-6.183594 13.792969-13.792969 13.792969h-32.007812c-1.03125-.625-2.4375-1.496094-4.253907-2.640625zm-105.765625 21.832031c10.695313-3.746093 20.949219-8.578125 30.742187-14.335937 8.390626 7.664062 17.289063 14.613281 25.144532 20.230468h-21.367188c-12.042968-.007812-23.6875-2.121093-34.519531-5.894531zm-45.265625-106.113281c21.65625 0 28.777344 9.839844 37.230469 30.078125l-.421875.320313c-14.175782 10.625-31.527344 16.714843-49.199219 17.449218-2.410156-7.679687-3.648437-15.582031-3.601563-23.496094.136719-22.558593 7.015626-24.351562 15.992188-24.351562zm-5.6875 63.414062c17.550781-1.773437 34.558594-8.054687 49.070312-18.132812 1.90625 4.679688 3.914063 9.414062 6.3125 14.269531 3.472657 7 8.65625 13.921875 14.617188 20.527344-12.039062 6.664063-24.839844 11.800781-38.242188 15.152344l-2.023437.503906c-5.816406-3.832031-11.191406-8.238281-15.910156-13.277344-5.527344-5.914062-10.128907-12.328125-13.824219-19.042969zm13.046875 104.585938h-16.167969c-3.191406-15.648438-15.542968-28-31.191406-31.191406v-16.167969c24.472656 3.527344 43.832031 22.886719 47.359375 47.359375zm-94.550781 16c3.191406 15.648438 15.542968 28 31.191406 31.191406v16.167969c-24.472656-3.527344-43.832031-22.886719-47.359375-47.359375zm39.191406-32c13.230469 0 24 10.769531 24 24s-10.769531 24-24 24-24-10.769531-24-24 10.769531-24 24-24zm8 63.191406c15.648438-3.191406 28-15.542968 31.191406-31.191406h16.167969c-3.527344 24.472656-22.886719 43.832031-47.359375 47.359375zm-16-94.550781v16.167969c-15.648438 3.191406-28 15.542968-31.191406 31.191406h-16.167969c3.527344-24.472656 22.886719-43.832031 47.359375-47.359375zm8 127.359375c39.703125 0 72-32.304688 72-72 0-16.199219-5.449219-31.121094-14.511719-43.167969 11.695313-4.398437 23.703125-7.6875 35.839844-9.808593 10.96875 3.242187 22.574219 4.976562 34.464844 4.976562h28.464843l31.070313 37.28125c5.679687 6.816406 14.023437 10.71875 22.886719 10.71875 2.226562 0 4.378906-.289062 6.457031-.753906-.398437 2.875-.671875 5.777344-.671875 8.753906 0 35.289062 28.710938 64 64 64 15.214844 0 29.191406-5.359375 40.183594-14.257812 8.402344 12.113281 14.671875 22.777343 18.753906 30.257812h-421.875c5.371094-9.847656 14.53125-25.207031 27.425781-42.191406 13.214844 15.984375 33.191407 26.191406 55.511719 26.191406zm254.03125 112h-252.0625c-31.625 0-59.433594-19.304688-70.929688-48h393.921876c-11.496094 28.695312-39.304688 48-70.929688 48zm97.96875-64h-448c-4.414062 0-8-3.59375-8-8s3.585938-8 8-8h448c4.414062 0 8 3.59375 8 8s-3.585938 8-8 8zm0 0"/><path d="m400 336c17.648438 0 32-14.351562 32-32h-16c0 8.824219-7.175781 16-16 16s-16-7.175781-16-16 7.175781-16 16-16v-16c-17.648438 0-32 14.351562-32 32s14.351562 32 32 32zm0 0"/><path d="m232 112h16c0-6.367188 2.414062-9.183594 6.070312-13.449219 4.425782-5.160156 9.929688-11.574219 9.929688-23.871093 0-12.296876-5.503906-18.71875-9.929688-23.878907-3.65625-4.265625-6.070312-7.082031-6.070312-13.457031s2.414062-9.199219 6.078125-13.464844c4.417969-5.160156 9.921875-11.582031 9.921875-23.878906h-16c0 6.375-2.414062 9.199219-6.078125 13.464844-4.417969 5.160156-9.921875 11.582031-9.921875 23.878906s5.503906 18.710938 9.921875 23.871094c3.664063 4.273437 6.078125 7.089844 6.078125 13.464844 0 6.367187-2.414062 9.183593-6.070312 13.457031-4.425782 5.160156-9.929688 11.574219-9.929688 23.863281zm0 0"/><path d="m296 152h16c0-6.367188 2.414062-9.183594 6.070312-13.449219 4.425782-5.160156 9.929688-11.574219 9.929688-23.871093 0-12.296876-5.503906-18.71875-9.929688-23.878907-3.65625-4.265625-6.070312-7.082031-6.070312-13.457031s2.414062-9.199219 6.078125-13.464844c4.417969-5.160156 9.921875-11.582031 9.921875-23.878906h-16c0 6.375-2.414062 9.199219-6.078125 13.464844-4.417969 5.160156-9.921875 11.582031-9.921875 23.878906s5.503906 18.710938 9.921875 23.871094c3.664063 4.265625 6.078125 7.089844 6.078125 13.464844 0 6.367187-2.414062 9.183593-6.070312 13.457031-4.425782 5.160156-9.929688 11.574219-9.929688 23.863281zm0 0"/><path d="m368 136h16c0-6.367188 2.414062-9.183594 6.070312-13.449219 4.425782-5.160156 9.929688-11.574219 9.929688-23.871093 0-12.296876-5.503906-18.71875-9.929688-23.878907-3.65625-4.265625-6.070312-7.082031-6.070312-13.457031s2.414062-9.199219 6.078125-13.464844c4.417969-5.160156 9.921875-11.582031 9.921875-23.878906h-16c0 6.375-2.414062 9.199219-6.078125 13.464844-4.417969 5.160156-9.921875 11.582031-9.921875 23.878906s5.503906 18.710938 9.921875 23.871094c3.664063 4.265625 6.078125 7.089844 6.078125 13.464844 0 6.367187-2.414062 9.183593-6.070312 13.457031-4.425782 5.160156-9.929688 11.574219-9.929688 23.863281zm0 0"/><path d="m232 352h16v16h-16zm0 0"/><path d="m248 304h16v16h-16zm0 0"/><path d="m208 264h16v16h-16zm0 0"/><path d="m296 352h16v16h-16zm0 0"/><path d="m280 320h16v16h-16zm0 0"/><path d="m208 320h16v16h-16zm0 0"/><path d="m248 272h16v16h-16zm0 0"/></svg>