<?xml version="1.0"?>
<svg xmlns="http://www.w3.org/2000/svg" viewBox="0 0 512 512" width="512" height="512"><g id="Out_line" data-name="Out line"><path d="M182.9751,205.65674,188.63184,200h20.68652a8,8,0,0,0,0-16h-24a7.99877,7.99877,0,0,0-5.65674,2.34326l-8,8a7.99984,7.99984,0,1,0,11.31348,11.31348Z"/><path d="M193.31836,232a8,8,0,0,0,0-16h-8a8,8,0,1,0,0,16Z"/><rect x="96" y="456" width="16" height="40"/><path d="M447.89111,398.68506a7.99853,7.99853,0,0,0-3.77539-5.54492l-38.76635-23.25977-31.1023-38.87793a7.99787,7.99787,0,0,0-9.959-2.08887l-10.54,5.521-20.09131-20.09131a8.00037,8.00037,0,0,0-9.48438-1.36816L320.271,315.101l-.64014-7.68017a39.251,39.251,0,0,0,49.6875-37.84314V236.95117A38.98122,38.98122,0,0,0,358.8103,210.228a31.73939,31.73939,0,0,0,2.50806-12.33106V189.4043a85.38636,85.38636,0,0,0-31.376-66.33069l-1.05945-6.34729,12.66492,6.33227A38.63918,38.63918,0,0,0,380.3075,56.37988l16.89611-9.38672a8,8,0,1,0-7.7705-13.98632L365.3335,46.39551,344.375,32.42334c-.31885-.21265-.64331-.41406-.96619-.6189l1.60193-5.60669a8.00018,8.00018,0,0,0-15.38476-4.3955l-1.04615,3.66125a50.20275,50.20275,0,0,0-12.0227-1.46643l-18.41455-.00391h-.00977a48.72051,48.72051,0,0,0-25.53344,7.259A41.6739,41.6739,0,0,0,249.03955,24H233.31836a32.04881,32.04881,0,0,0-31.218,24.99438,101.63294,101.63294,0,0,0-58.10766,29.01783,50.10911,50.10911,0,0,0,7.05322,76.7268A49.513,49.513,0,0,0,145.31836,178v36.45947l-15.42774,38.56934A8.0001,8.0001,0,0,0,137.31836,264h17.96582l14.3418,50.19775A8.00027,8.00027,0,0,0,177.31836,320h4.9729L70.269,392.68506a8.00041,8.00041,0,0,0-3.501,5.19678l-18.62354,96.604,15.71094,3.02832,17.979-93.26025,72.14026-46.808,13.93982,90.6084-37.894,42.63074,11.959,10.62988,63.02832-70.90674L365.87158,346.146l21.84424,27.30517-127.459,67.47852a8.00488,8.00488,0,0,0-2.40284,1.94873l-40,48,12.292,10.24316,38.99072-46.78906,130.61767-69.15064,32.96192,19.7771,15.39258,92.356,15.78222-2.62988ZM353.31836,269.57764A23.26665,23.26665,0,0,1,317.14551,288.937a44.437,44.437,0,0,1-19.82715-37.04785V240.32007l40.79053-11.65454a31.70576,31.70576,0,0,0,10.69861-5.44409,23.07326,23.07326,0,0,1,4.51086,13.72973Zm-8-80.17334V197.897a16.06676,16.06676,0,0,1-11.60449,15.38379L249.31836,237.394V201.54053a57.29449,57.29449,0,0,0-4.11524-21.37012l-3.05371-7.63379a45.19561,45.19561,0,0,0-24.74707-25.10791l12.17432-10.62744a69.82478,69.82478,0,0,1,115.7417,52.603ZM371.38672,69.66016a22.64025,22.64025,0,0,1-22.6836,39.08789L325.62549,97.20947l-1.51074-9.05224c-.03626-.21729-.04407-.4336-.0597-.65039.245-.0896.48548-.19727.72474-.31275.10583-.05078.214-.095.31738-.15039.03491-.0188.07153-.03125.10644-.05054l39.37232-21.87353ZM349.60046,55.13611l-15.28381,8.491,4.48315-15.69129ZM298.13965,39.99316l18.41406.00391a34.20822,34.20822,0,0,1,7.62671.8645L315.9646,69.61743a23.00068,23.00068,0,0,0-7.6311,21.17407l3.48046,20.855a85.52431,85.52431,0,0,0-24.0996-7.20263l-6.83863-11.39771a42.21705,42.21705,0,0,0,3.32129-49.9104,32.64,32.64,0,0,1,13.93579-3.14258ZM233.31836,40h15.72119a25.74383,25.74383,0,0,1,20.20117,9.70947,26.04444,26.04444,0,0,1,2.59058,28.354,66.46627,66.46627,0,0,0-52.39551-29.98523A15.99914,15.99914,0,0,1,233.31836,40ZM155.30908,89.32324A85.84747,85.84747,0,0,1,216.43408,64a50.33323,50.33323,0,0,1,42.94336,24.31445l9.32031,15.53357a85.61172,85.61172,0,0,0-49.64257,20.89954L196.99976,144h-33.259l-3.22363-2.14893a34.13178,34.13178,0,0,1-5.208-52.52783Zm13.70166,164.479A8.00027,8.00027,0,0,0,161.31836,248H149.13477l11.61132-29.02881A8.00164,8.00164,0,0,0,161.31836,216V178a33.61583,33.61583,0,0,1,5.15308-18H200A29.25579,29.25579,0,0,1,227.294,178.479l3.05322,7.6333a41.36051,41.36051,0,0,1,2.97119,15.42823V248a8.00056,8.00056,0,0,0,10.19775,7.69238l37.80225-10.80078v6.99756A60.38164,60.38164,0,0,0,302.802,298.13428l2.09155,25.101-35.68518,17.60083-50.62732,24.97058-15.96191-22.51953L216.251,316.02344l15.72363-23.58594a7.99982,7.99982,0,0,0-13.3125-8.875L205.03711,304H183.353Zm20.01038,80.9038-2.858,5.71631a7.99888,7.99888,0,0,0,.62841,8.20362l17.25806,24.34814L174.773,387.41406l-6.07971-39.51819Zm7.267,82.20752a7.9916,7.9916,0,0,0-2.26758,1.77149L181.71387,432.53l-4.3899-28.53394,139.533-68.82129c.09864-.04858.18457-.11352.2804-.16577l.00867.01587,9.42773-5.1372,12.3252,12.325Z"/><rect x="360" y="456" width="16" height="40"/></g></svg>
