<?xml version="1.0" encoding="iso-8859-1"?>
<!-- Generator: Adobe Illustrator 19.0.0, SVG Export Plug-In . SVG Version: 6.00 Build 0)  -->
<svg version="1.1" id="Layer_1" xmlns="http://www.w3.org/2000/svg" xmlns:xlink="http://www.w3.org/1999/xlink" x="0px" y="0px"
	 viewBox="0 0 512 512" style="enable-background:new 0 0 512 512;" xml:space="preserve">
<path style="fill:#E6E6E6;" d="M444.369,194.753H67.631v250.942c0,29.145,23.627,52.771,52.771,52.771h271.195
	c29.145,0,52.771-23.627,52.771-52.771V194.753H444.369z"/>
<path style="fill:#CCCCCC;" d="M117.42,445.696V194.753H67.631v250.942c0,29.145,23.627,52.771,52.771,52.771h49.789
	C141.047,498.467,117.42,474.84,117.42,445.696z"/>
<path style="fill:#E6E6E6;" d="M412.44,61.786L76.424,124.864c-21.621,4.059-35.858,24.876-31.799,46.497l0,0l414.312-77.775l0,0
	C454.878,71.965,434.061,57.728,412.44,61.786z"/>
<path style="fill:#CCCCCC;" d="M144.931,112.003l-68.508,12.861c-21.621,4.059-35.858,24.876-31.799,46.497l0,0l68.509-12.861l0,0
	C109.075,136.879,123.311,116.062,144.931,112.003z"/>
<rect x="221.5" y="58.77" transform="matrix(-0.9828 0.1845 -0.1845 -0.9828 492.3316 106.5784)" style="fill:#C9BBBB;" width="39.414" height="34.851"/>
<g>
	<path style="fill:#EAA0E3;" d="M253.794,13.891l-46.896,8.803c-11.261,2.113-18.675,12.956-16.562,24.216l0,0
		c2.113,11.261,12.956,18.675,24.216,16.562l46.896-8.803c11.261-2.113,18.675-12.956,16.562-24.216l0,0
		C275.897,19.192,265.054,11.777,253.794,13.891z"/>
	<path style="fill:#EAA0E3;" d="M24.065,266.117H67.63v-31.533H24.065c-8.708,0-15.766,7.059-15.766,15.766l0,0
		C8.299,259.059,15.358,266.117,24.065,266.117z"/>
	<path style="fill:#EAA0E3;" d="M487.935,234.585H444.37v31.534h43.565c8.708,0,15.766-7.059,15.766-15.766l0,0
		C503.701,241.643,496.642,234.585,487.935,234.585z"/>
</g>
<path style="fill:#EC589B;" d="M401.854,64.137c0-22.228,15.305-40.248,34.184-40.248c23.599,0,42.73,22.525,42.73,50.31
	c0,34.731-41.158,68.687-76.914,86.966c-35.756-18.279-76.914-52.235-76.914-86.966c0-27.785,19.131-50.31,42.73-50.31
	C386.549,23.889,401.854,41.909,401.854,64.137z"/>
<path d="M44.613,179.661c0.507,0,1.023-0.046,1.54-0.144l273.14-51.278c4.505-0.845,7.471-5.183,6.625-9.687
	c-0.845-4.504-5.179-7.47-9.687-6.626L52.326,161.472c0.428-5.416,2.265-10.651,5.416-15.257
	c4.756-6.951,11.935-11.636,20.213-13.191l68.51-12.863c4.504-0.845,7.471-5.183,6.625-9.687c-0.845-4.504-5.185-7.472-9.687-6.625
	l-68.511,12.863c-26.085,4.899-43.323,30.103-38.425,56.182C37.215,176.88,40.699,179.661,44.613,179.661z"/>
<path d="M487.935,226.286h-35.267v-31.533c0-4.583-3.716-8.299-8.299-8.299H67.631c-4.583,0-8.299,3.716-8.299,8.299v31.533H24.066
	C10.796,226.286,0,237.081,0,250.351s10.796,24.065,24.066,24.065h35.267v122.813c0,4.583,3.716,8.299,8.299,8.299
	s8.299-3.716,8.299-8.299V203.052h360.141v242.644c0,24.523-19.95,44.473-44.473,44.473H120.402
	c-24.523,0-44.473-19.95-44.473-44.473v-20.805c0-4.583-3.716-8.299-8.299-8.299s-8.299,3.716-8.299,8.299v20.805
	c0,33.675,27.395,61.07,61.07,61.07h271.195c33.675,0,61.07-27.395,61.07-61.07v-171.28h35.267c13.27,0,24.066-10.795,24.066-24.065
	S501.204,226.286,487.935,226.286z M24.066,257.818c-4.118,0-7.469-3.35-7.469-7.468c0-4.118,3.35-7.469,7.469-7.469h35.267v14.936
	H24.066z M487.935,257.818h-35.267v-14.935h35.267c4.118,0,7.469,3.35,7.469,7.469C495.403,254.468,492.052,257.818,487.935,257.818
	z"/>
<path d="M175.845,114.499c0.508,0,1.023-0.046,1.54-0.144l141.023-26.477c8.535,33.573,46.547,63.744,79.668,80.677
	c1.186,0.606,2.482,0.91,3.778,0.91s2.591-0.303,3.778-0.91c37.566-19.205,81.435-55.44,81.435-94.355
	c0-9.75-2.121-19.405-6.135-27.92c-1.954-4.146-6.899-5.922-11.045-3.968c-4.146,1.954-5.922,6.899-3.968,11.045
	c2.978,6.316,4.552,13.523,4.552,20.843c0,28.379-33.867,58.943-68.622,77.602C354.492,126.54,333.24,94.847,333.24,74.2
	c0-23.165,15.445-42.011,34.432-42.011c14.272,0,25.885,14.332,25.885,31.95c0,4.583,3.716,8.299,8.299,8.299
	c4.583,0,8.299-3.716,8.299-8.299c0-17.616,11.613-31.95,25.886-31.95c5.63,0,10.998,1.617,15.959,4.804
	c3.854,2.477,8.989,1.362,11.468-2.494c2.478-3.855,1.361-8.99-2.494-11.469c-7.573-4.867-16.194-7.44-24.933-7.44
	c-14,0-26.44,7.779-34.185,19.753c-7.744-11.974-20.183-19.753-34.184-19.753c-27.294,0-49.649,24.74-50.965,55.72L270.425,80
	l-3.423-18.235c13.442-4.579,21.859-18.487,19.164-32.843c-2.954-15.74-18.162-26.141-33.905-23.187l-46.895,8.803
	c-15.74,2.955-26.141,18.164-23.187,33.905c2.617,13.937,14.84,23.69,28.534,23.689c0.411,0,0.823-0.011,1.237-0.029l3.423,18.234
	l-41.052,7.708c-4.504,0.845-7.471,5.183-6.624,9.687C168.446,111.718,171.931,114.499,175.845,114.499z M198.493,45.381
	c-1.266-6.745,3.192-13.263,9.937-14.53l46.895-8.803c6.738-1.266,13.263,3.191,14.53,9.936c1.266,6.745-3.192,13.263-9.937,14.53
	l-46.895,8.803C206.281,56.583,199.759,52.126,198.493,45.381z M228.319,69.333l22.427-4.21l3.368,17.939l-22.426,4.21
	L228.319,69.333z"/>
<g>
</g>
<g>
</g>
<g>
</g>
<g>
</g>
<g>
</g>
<g>
</g>
<g>
</g>
<g>
</g>
<g>
</g>
<g>
</g>
<g>
</g>
<g>
</g>
<g>
</g>
<g>
</g>
<g>
</g>
</svg>
