<?xml version="1.0" encoding="iso-8859-1"?>
<!-- Generator: Adobe Illustrator 19.0.0, SVG Export Plug-In . SVG Version: 6.00 Build 0)  -->
<svg version="1.1" id="Capa_1" xmlns="http://www.w3.org/2000/svg" xmlns:xlink="http://www.w3.org/1999/xlink" x="0px" y="0px"
	 viewBox="0 0 512 512" style="enable-background:new 0 0 512 512;" xml:space="preserve">
<rect x="59.733" y="384" style="fill:#DBDBDB;" width="51.2" height="119.467"/>
<rect x="17.051" y="444.058" transform="matrix(-0.9943 -0.1062 0.1062 -0.9943 461.5267 946.8258)" style="fill:#744630;" width="477.845" height="34.132"/>
<path style="fill:#F7BA61;" d="M42.667,8.533h426.667c18.85,0,34.133,15.283,34.133,34.133V307.2
	c0,18.85-15.283,34.133-34.133,34.133H42.667c-18.85,0-34.133-15.283-34.133-34.133V42.667C8.533,23.817,23.817,8.533,42.667,8.533z
	"/>
<path style="fill:#EBEBEB;" d="M401.067,307.2h-8.533c-37.7,0-68.267-30.566-68.267-68.267V230.4
	c0.068-37.709,30.558-68.301,68.267-68.497h76.8v77.03C469.333,276.634,438.767,307.2,401.067,307.2z"/>
<path style="fill:#DC4D41;" d="M196.267,42.667H307.2c18.85,0,34.133,15.283,34.133,34.133v59.733l0,0h-179.2l0,0V76.8
	C162.133,57.95,177.417,42.667,196.267,42.667z"/>
<g>
	<polygon style="fill:#EA6B65;" points="290.133,42.667 221.867,136.533 162.133,136.533 230.4,42.667 	"/>
	<path style="fill:#EA6B65;" d="M281.6,136.533h59.733V76.8c-0.034-5.743-1.545-11.392-4.369-16.393L281.6,136.533z"/>
</g>
<circle style="fill:#744630;" cx="396.8" cy="234.667" r="38.4"/>
<path style="fill:#79A73A;" d="M62.148,94.362l2.56,1.707c5.734,3.823,13.193,3.823,18.927,0l2.56-1.707
	c7.578-5.052,9.856-15.164,5.171-22.98L74.24,51.2L56.977,71.381C52.292,79.198,54.571,89.31,62.148,94.362z"/>
<path style="fill:#F86688;" d="M388.565,51.362c-14.592,14.276-14.447,25.233-11.563,35.038h65.195
	c0.973-3.106,1.493-6.34,1.536-9.6c0-18.85-15.275-34.133-34.125-34.142c-1.101,0-2.193,0.051-3.294,0.162
	C399.599,43.571,393.344,46.583,388.565,51.362z"/>
<path style="fill:#F790B0;" d="M414.165,92.962c-14.592,14.276-14.447,25.233-11.563,35.038h65.195
	c0.973-3.106,1.493-6.34,1.536-9.6c0-18.85-15.275-34.133-34.125-34.142c-1.101,0-2.193,0.051-3.294,0.162
	C425.199,85.171,418.944,88.183,414.165,92.962z"/>
<rect x="17.09" y="406.357" transform="matrix(0.9943 -0.1062 0.1062 0.9943 -43.5215 29.5845)" style="fill:#A66444;" width="477.845" height="34.132"/>
<path style="fill:#DC4D41;" d="M76.8,213.333h110.933c18.85,0,34.133,15.283,34.133,34.133V307.2l0,0h-179.2l0,0v-59.733
	C42.667,228.617,57.95,213.333,76.8,213.333z"/>
<g>
	<polygon style="fill:#EA6B65;" points="170.667,213.333 102.4,307.2 42.667,307.2 110.933,213.333 	"/>
	<path style="fill:#EA6B65;" d="M162.133,307.2h59.733v-59.733c-0.034-5.743-1.545-11.392-4.369-16.393L162.133,307.2z"/>
	<path style="fill:#EA6B65;" d="M136.533,128h110.933c18.85,0,34.133,15.283,34.133,34.133v59.733l0,0H102.4l0,0v-59.733
		C102.4,143.283,117.683,128,136.533,128z"/>
</g>
<g>
	<polygon style="fill:#DC4D41;" points="230.4,128 162.133,221.867 102.4,221.867 170.667,128 	"/>
	<path style="fill:#DC4D41;" d="M221.867,221.867H281.6v-59.733c-0.034-5.743-1.545-11.392-4.369-16.393L221.867,221.867z"/>
</g>
<path d="M42.667,349.867h426.667c23.552-0.026,42.641-19.115,42.667-42.667V42.667C511.974,19.115,492.885,0.026,469.333,0H42.667
	C19.115,0.026,0.026,19.115,0,42.667V307.2C0.026,330.752,19.115,349.841,42.667,349.867z M17.067,42.667
	c0-14.14,11.46-25.6,25.6-25.6h426.667c14.14,0,25.6,11.46,25.6,25.6V307.2c0,14.14-11.46,25.6-25.6,25.6H42.667
	c-14.14,0-25.6-11.46-25.6-25.6V42.667z"/>
<path d="M230.4,247.467c-0.026-5.308-1.05-10.556-3.012-15.488l1.152-1.579h61.594v-68.267c-0.026-5.308-1.05-10.556-3.012-15.488
	l1.152-1.579h61.594V76.8c-0.026-23.552-19.115-42.641-42.667-42.667H196.267C172.715,34.159,153.626,53.248,153.6,76.8v42.667
	h-17.067c-23.552,0.026-42.641,19.115-42.667,42.667V204.8H76.8c-23.552,0.026-42.641,19.115-42.667,42.667v68.267H230.4V247.467z
	 M217.523,213.333h-4.19v0.222c-7.339-5.649-16.341-8.721-25.6-8.755h-2.637l49.647-68.267h12.723
	c7.458,0.026,14.532,3.328,19.345,9.028L217.523,213.333z M185.097,119.467L234.743,51.2h38.639l-49.655,68.267H185.097z
	 M175.01,136.533h38.639L163.994,204.8h-38.63L175.01,136.533z M115.277,221.867h38.639l-55.859,76.8H59.418L115.277,221.867z
	 M175.01,221.867h12.723c7.458,0.026,14.532,3.328,19.345,9.028l-49.289,67.772h-38.639L175.01,221.867z M273.067,213.333h-34.449
	l34.449-47.36V213.333z M298.359,128L332.8,80.64V128H298.359z M326.519,60.228l-50.893,70.067
	c-7.74-6.946-17.758-10.803-28.16-10.829h-2.637L294.477,51.2H307.2c7.467,0.026,14.541,3.328,19.354,9.028H326.519z M196.267,51.2
	h17.382l-42.982,59.093V76.8C170.667,62.66,182.127,51.2,196.267,51.2z M136.533,136.533h17.382l-42.982,59.093v-33.493
	C110.933,147.994,122.394,136.533,136.533,136.533z M76.8,221.867h17.382L51.2,280.96v-33.493
	C51.2,233.327,62.66,221.867,76.8,221.867z M178.884,298.667l34.449-47.36v47.36H178.884z"/>
<path d="M396.8,281.6c25.779-0.341,46.592-21.154,46.933-46.933c0.273-25.643-20.292-46.66-45.935-46.933c-0.333,0-0.666,0-0.998,0
	c-25.924,0-46.933,21.009-46.933,46.933S370.876,281.6,396.8,281.6z M396.8,204.8c16.316-0.179,29.687,12.902,29.867,29.218
	c0,0.213,0,0.435,0,0.649c-0.213,16.401-13.466,29.653-29.867,29.867c-16.495,0-29.867-13.372-29.867-29.867
	S380.305,204.8,396.8,204.8z"/>
<path d="M315.733,230.4v8.533c0.051,42.394,34.406,76.749,76.8,76.8h8.533c42.394-0.051,76.749-34.406,76.8-76.8v-85.555h-85.385
	C350.114,153.685,315.887,188.032,315.733,230.4z M460.8,170.445v68.489c-0.043,32.973-26.761,59.691-59.733,59.733h-8.533
	c-32.973-0.043-59.691-26.761-59.733-59.733V230.4c0.119-32.973,26.761-59.716,59.733-59.955L460.8,170.445L460.8,170.445z"/>
<path d="M57.412,101.461l2.56,1.707c8.593,5.751,19.806,5.751,28.399,0l2.56-1.707c11.366-7.578,14.78-22.75,7.748-34.466
	c-0.247-0.41-0.538-0.802-0.853-1.161L80.7,45.662c-3.063-3.584-8.448-4.011-12.032-0.947c-0.341,0.29-0.657,0.606-0.947,0.947
	L50.483,65.835c-0.316,0.358-0.606,0.751-0.853,1.161C42.607,78.72,46.037,93.892,57.412,101.461z M64,76.279l10.24-11.947
	l10.24,11.947c1.971,3.866,0.734,8.593-2.876,10.991l-2.56,1.707c-2.867,1.911-6.605,1.911-9.472,0l-2.56-1.707
	C63.351,84.915,62.054,80.179,64,76.279z"/>
<path d="M377.011,94.933h24.166c-8.235,9.865-10.795,23.287-6.75,35.482c1.067,3.627,4.403,6.118,8.183,6.118h65.178
	c3.78,0,7.108-2.483,8.183-6.11c1.212-3.891,1.852-7.945,1.894-12.023c-0.009-12.015-5.069-23.475-13.943-31.573
	c-3.601-3.183-7.714-5.717-12.169-7.509c0.299-0.811,0.469-1.655,0.512-2.517c0.009-23.561-19.089-42.675-42.65-42.684
	c-1.365,0-2.731,0.068-4.096,0.196c-8.67,0.93-16.751,4.796-22.921,10.957c-18.321,17.92-16.981,32.683-13.773,43.52
	C369.886,92.425,373.222,94.933,377.011,94.933z M460.8,118.4c0,0.35,0,0.708,0,1.067h-51.2c0.222-8.047,4.087-15.556,10.513-20.403
	c3.371-3.422,7.808-5.589,12.578-6.144c7.211-0.734,14.387,1.647,19.721,6.545C457.745,104.32,460.792,111.189,460.8,118.4z
	 M394.53,57.463c3.371-3.422,7.808-5.589,12.578-6.144c7.211-0.742,14.387,1.647,19.721,6.545
	c5.086,4.668,8.073,11.187,8.286,18.082c-1.331,0-2.654-0.179-3.994-0.068c-2.833,0.316-5.623,0.973-8.303,1.954H384
	C384.23,69.794,388.105,62.302,394.53,57.463z"/>
<path d="M20.224,474.283c0.307,0,0.614-0.017,0.922-0.051L51.2,471.04v32.427c0,4.71,3.823,8.533,8.533,8.533h51.2
	c4.71,0,8.533-3.823,8.533-8.533v-31.172l371.388,39.654c4.685,0.495,8.883-2.893,9.387-7.578l3.627-33.937
	c0.495-4.685-2.893-8.883-7.578-9.387l-175.787-18.773l175.787-18.773c4.685-0.503,8.073-4.702,7.578-9.387l-3.627-33.937
	c-0.503-4.685-4.702-8.073-9.387-7.578l-371.388,39.646V384c0-4.71-3.823-8.533-8.533-8.533h-51.2c-4.71,0-8.533,3.823-8.533,8.533
	v29.517l-30.054-3.209c-4.642-0.529-8.841,2.799-9.37,7.45c-0.009,0.043-0.009,0.085-0.017,0.128l-0.853,7.774
	c-0.341,0.239-0.657,0.503-0.956,0.794c-1.417,1.758-2.082,4.011-1.843,6.263l3.627,33.946
	C12.203,470.997,15.863,474.283,20.224,474.283z M68.267,494.933v-25.6v-0.128l34.133-3.652v29.38H68.267z M485.999,477.099
	l-1.809,16.981l-324.429-34.645l80.375-8.585L485.999,477.099z M485.999,407.441L240.137,433.69h-0.299
	c-1.254-0.128-2.517,0.034-3.695,0.461L27.81,456.354l-1.809-16.973l458.189-48.913L485.999,407.441z M68.267,392.533H102.4v21.538
	l-23.851,2.56c-0.299-0.06-0.538-0.23-0.853-0.265l-9.429-1.024V392.533z"/>
<g>
</g>
<g>
</g>
<g>
</g>
<g>
</g>
<g>
</g>
<g>
</g>
<g>
</g>
<g>
</g>
<g>
</g>
<g>
</g>
<g>
</g>
<g>
</g>
<g>
</g>
<g>
</g>
<g>
</g>
</svg>
