<svg id="icons" enable-background="new 0 0 64 64" height="512" viewBox="0 0 64 64" width="512" xmlns="http://www.w3.org/2000/svg"><path d="m60 46.97c0-1.931-1.57-3.5-3.5-3.5s-3.5 1.569-3.5 3.5c0 1.93 1.57 3.5 3.5 3.5s3.5-1.571 3.5-3.5zm-3.5-6.5c3.59 0 6.5 2.91 6.5 6.5s-2.91 6.5-6.5 6.5-6.5-2.91-6.5-6.5 2.91-6.5 6.5-6.5z" fill="#e6e9ed"/><path d="m60 46.97c0 1.93-1.57 3.5-3.5 3.5s-3.5-1.57-3.5-3.5c0-1.931 1.57-3.5 3.5-3.5s3.5 1.569 3.5 3.5z" fill="#656d78"/><path d="m60 9.979c0-1.93-1.57-3.5-3.5-3.5s-3.5 1.571-3.5 3.5 1.57 3.5 3.5 3.5 3.5-1.57 3.5-3.5zm3 0c0 3.59-2.91 6.5-6.5 6.5s-6.5-2.91-6.5-6.5 2.91-6.5 6.5-6.5 6.5 2.911 6.5 6.5z" fill="#e6e9ed"/><path d="m62 19.47c.55 0 1 .45 1 1v16c0 .55-.45 1-1 1h-6c-.55 0-1-.45-1-1v-16c0-.55.45-1 1-1z" fill="#e6e9ed"/><path d="m56 19.47c-.55 0-1 .45-1 1v16c0 .55.45 1 1 1h2v-18z" fill="#ccd1d9"/><path d="m60 9.979c0 1.93-1.57 3.5-3.5 3.5s-3.5-1.57-3.5-3.5 1.57-3.5 3.5-3.5 3.5 1.571 3.5 3.5z" fill="#a0d468"/><g fill="#fc6e51"><path d="m39 30.479c1.1 0 2 .9 2 2 0 1.11-.9 2-2 2-1.11 0-2-.89-2-2 0-1.099.89-2 2-2z"/><path d="m26 25.479c1.1 0 2 .89 2 2 0 1.1-.9 2-2 2-1.11 0-2-.9-2-2 0-1.11.89-2 2-2z"/><path d="m13 17.479c1.1 0 2 .9 2 2 0 1.11-.9 2-2 2-1.11 0-2-.89-2-2 0-1.099.89-2 2-2z"/></g><path d="m15 19.479c0-1.1-.9-2-2-2-1.11 0-2 .9-2 2 0 1.11.89 2 2 2 1.1 0 2-.889 2-2zm-7 0v-3c0-1.1.9-2 2-2h6c1.1 0 2 .9 2 2v3 3c0 1.1-.9 2-2 2h-6c-1.1 0-2-.9-2-2z" fill="#fff"/><path d="m36 14.479h6c1.09 0 2 .9 2 2v3 3c0 1.1-.91 2-2 2h-6c-1.1 0-2-.9-2-2v-3-3c0-1.099.9-2 2-2zm5 5c0-1.1-.9-2-2-2-1.11 0-2 .9-2 2 0 1.11.89 2 2 2 1.1 0 2-.889 2-2z" fill="#fff"/><path d="m39 17.479c1.1 0 2 .9 2 2 0 1.11-.9 2-2 2-1.11 0-2-.89-2-2 0-1.099.89-2 2-2z" fill="#fc6e51"/><path d="m36 24.479h6c1.09 0 2-.9 2-2v3c0 1.1-.9 2-2 2h-6c-1.1 0-2-.9-2-2v-3c0 1.1.9 2 2 2z" fill="#656d78"/><path d="m8 22.479c0 1.1.9 2 2 2h6c1.1 0 2-.9 2-2v3c0 1.1-.9 2-2 2h-6c-1.1 0-2-.9-2-2z" fill="#656d78"/><path d="m13 30.479c1.1 0 2 .9 2 2 0 1.11-.9 2-2 2-1.11 0-2-.89-2-2 0-1.099.89-2 2-2z" fill="#fc6e51"/><path d="m44 38.479c0 1.1-.9 2-2 2h-6c-1.1 0-2-.9-2-2v-3c0 1.1.9 2 2 2h6c1.09 0 2-.9 2-2z" fill="#656d78"/><path d="m8 35.479c0 1.1.9 2 2 2h6c1.1 0 2-.9 2-2v3c0 1.1-.9 2-2 2h-6c-1.1 0-2-.9-2-2z" fill="#656d78"/><path d="m15 32.479c0-1.1-.9-2-2-2-1.11 0-2 .9-2 2 0 1.11.89 2 2 2 1.1 0 2-.889 2-2zm-7 0v-3c0-1.1.9-2 2-2h6c1.1 0 2 .9 2 2v3 3c0 1.1-.9 2-2 2h-6c-1.1 0-2-.9-2-2z" fill="#fff"/><path d="m42 37.479h-6c-1.1 0-2-.9-2-2v-3-3c0-1.1.9-2 2-2h6c1.09 0 2 .9 2 2v3 3c0 1.1-.91 2-2 2zm-1-5c0-1.1-.9-2-2-2-1.11 0-2 .9-2 2 0 1.11.89 2 2 2 1.1 0 2-.889 2-2z" fill="#fff"/><path d="m26 38.479c1.1 0 2 .89 2 2 0 1.1-.9 2-2 2-1.11 0-2-.9-2-2 0-1.11.89-2 2-2z" fill="#fc6e51"/><path d="m23 22.479h6c1.1 0 2 .9 2 2v3 3c0 1.1-.9 2-2 2h-6c-1.1 0-2-.9-2-2v-3-3c0-1.099.9-2 2-2zm5 5c0-1.11-.9-2-2-2-1.11 0-2 .89-2 2 0 1.1.89 2 2 2 1.1 0 2-.9 2-2z" fill="#fff"/><path d="m29 32.479c1.1 0 2-.9 2-2v3c0 1.1-.9 2-2 2h-6c-1.1 0-2-.9-2-2v-3c0 1.1.9 2 2 2z" fill="#656d78"/><path d="m29 19.479h-6c-1.1 0-2-.9-2-2v-3-3c0-1.1.9-2 2-2h6c1.1 0 2 .9 2 2v3 3c0 1.1-.9 2-2 2zm-1-5c0-1.11-.9-2-2-2-1.11 0-2 .89-2 2 0 1.1.89 2 2 2 1.1 0 2-.9 2-2z" fill="#fff"/><path d="m18 38.479v-3-3-3c0-1.1-.9-2-2-2 1.1 0 2-.9 2-2v-3-3-3c0-1.1-.9-2-2-2h-6c-1.1 0-2 .9-2 2v3 3 3c0 1.1.9 2 2 2-1.1 0-2 .9-2 2v3 3 3c0 1.1.9 2 2 2h6c1.1 0 2-.9 2-2zm16-3v3c0 1.1.9 2 2 2h6c1.1 0 2-.9 2-2v-3-3-3c0-1.1-.91-2-2-2 1.1 0 2-.9 2-2v-3-3-3c0-1.1-.91-2-2-2h-6c-1.1 0-2 .9-2 2v3 3 3c0 1.1.9 2 2 2-1.1 0-2 .9-2 2v3zm-3-15v-3-3-3c0-1.1-.9-2-2-2h-6c-1.1 0-2 .9-2 2v3 3 3c0 1.1.9 2 2 2-1.1 0-2 .9-2 2v3 3 3c0 1.1.9 2 2 2-1.1 0-2 .9-2 2v3 3 3c0 1.1.9 2 2 2h6c1.1 0 2-.9 2-2v-3-3-3c0-1.1-.9-2-2-2 1.1 0 2-.9 2-2v-3-3-3c0-1.1-.9-2-2-2 1.1 0 2-.9 2-2zm-5-17.009c13.81 0 25 11.189 25 25 0 13.81-11.19 25-25 25s-25-11.19-25-25c0-13.811 11.19-25 25-25z" fill="#e6e9ed"/><path d="m23 35.479h6c1.1 0 2 .9 2 2v3 3c0 1.1-.9 2-2 2h-6c-1.1 0-2-.9-2-2v-3-3c0-1.099.9-2 2-2zm5 5c0-1.11-.9-2-2-2-1.11 0-2 .89-2 2 0 1.1.89 2 2 2 1.1 0 2-.9 2-2z" fill="#fff"/><path d="m26 12.479c1.1 0 2 .89 2 2 0 1.1-.9 2-2 2-1.11 0-2-.9-2-2 0-1.11.89-2 2-2z" fill="#fc6e51"/><path d="m31 20.479c0 1.1-.9 2-2 2h-6c-1.1 0-2-.9-2-2v-3c0 1.1.9 2 2 2h6c1.1 0 2-.9 2-2z" fill="#656d78"/><path d="m29 45.479c1.1 0 2-.9 2-2v3c0 1.1-.9 2-2 2h-6c-1.1 0-2-.9-2-2v-3c0 1.1.9 2 2 2z" fill="#656d78"/><path d="m63 57.53h-62c-.553 0-1-.447-1-1s.447-1 1-1h62c.553 0 1 .447 1 1s-.447 1-1 1z" fill="#ffd2a6"/><path d="m63 60.53h-62c-.553 0-1-.447-1-1s.447-1 1-1h62c.553 0 1 .447 1 1s-.447 1-1 1z" fill="#ffd2a6"/></svg>