<svg height="464pt" viewBox="0 -112 464 464" width="464pt" xmlns="http://www.w3.org/2000/svg"><path d="m136 0h-56c-44.183594 0-80 35.816406-80 80s35.816406 80 80 80h56c44.183594 0 80-35.816406 80-80s-35.816406-80-80-80zm0 0" fill="#aabece"/><path d="m153.296875 48h56c-12.722656-29.144531-41.496094-47.9882812-73.296875-48h-56c31.800781.0117188 60.574219 18.855469 73.296875 48zm0 0" fill="#6a9eaa"/><path d="m160 80c0 44.183594-35.816406 80-80 80s-80-35.816406-80-80 35.816406-80 80-80 80 35.816406 80 80zm0 0" fill="#f9ddac"/><path d="m128 80c0 26.507812-21.492188 48-48 48s-48-21.492188-48-48 21.492188-48 48-48 48 21.492188 48 48zm0 0" fill="#f98c96"/><path d="m384 0h-88c-44.183594 0-80 35.816406-80 80s35.816406 80 80 80h88c44.183594 0 80-35.816406 80-80s-35.816406-80-80-80zm0 0" fill="#aabece"/><path d="m369.296875 48h88c-12.722656-29.144531-41.496094-47.9882812-73.296875-48h-88c31.800781.0117188 60.574219 18.855469 73.296875 48zm0 0" fill="#6a9eaa"/><path d="m376 80c0 44.183594-35.816406 80-80 80s-80-35.816406-80-80 35.816406-80 80-80 80 35.816406 80 80zm0 0" fill="#f9ddac"/><path d="m344 80c0 26.507812-21.492188 48-48 48s-48-21.492188-48-48 21.492188-48 48-48 48 21.492188 48 48zm0 0" fill="#f98c96"/><path d="m0 160h464v48h-464zm0 0" fill="#dd3e46"/><g fill="#e97424"><path d="m80 32c-6.847656.003906-13.613281 1.480469-19.839844 4.328125 18.421875 23.046875 40.507813 42.910156 65.367188 58.800781 4.890625-14.632812 2.4375-30.722656-6.585938-43.234375-9.023437-12.511719-23.515625-19.914062-38.941406-19.894531zm0 0"/><path d="m80 128c9.640625.011719 19.054688-2.894531 27.015625-8.328125-20.523437-20.785156-46.46875-35.382813-74.886719-42.136719-.050781.863282-.128906 1.664063-.128906 2.464844 0 26.507812 21.492188 48 48 48zm0 0"/><path d="m296 32c-6.847656.003906-13.613281 1.480469-19.839844 4.328125 18.421875 23.046875 40.507813 42.910156 65.367188 58.800781 4.890625-14.632812 2.4375-30.722656-6.585938-43.234375-9.023437-12.511719-23.515625-19.914062-38.941406-19.894531zm0 0"/><path d="m296 128c9.640625.011719 19.054688-2.894531 27.015625-8.328125-20.523437-20.785156-46.46875-35.382813-74.886719-42.136719-.050781.800782-.128906 1.601563-.128906 2.464844 0 26.507812 21.492188 48 48 48zm0 0"/></g><path d="m24 208h416v32h-416zm0 0" fill="#ebb562"/><path d="m424 72h16v16h-16zm0 0" fill="#6a9eaa"/></svg>