<?xml version="1.0" encoding="iso-8859-1"?>
<!-- Generator: Adobe Illustrator 19.0.0, SVG Export Plug-In . SVG Version: 6.00 Build 0)  -->
<svg version="1.1" id="Capa_1" xmlns="http://www.w3.org/2000/svg" xmlns:xlink="http://www.w3.org/1999/xlink" x="0px" y="0px"
	 viewBox="0 0 512 512" style="enable-background:new 0 0 512 512;" xml:space="preserve">
<path style="fill:#455A64;" d="M496,80H272c-8.832,0-16,7.168-16,16v128c0,44.864,56.224,80,128,80s128-35.136,128-80V96
	C512,87.168,504.832,80,496,80z"/>
<ellipse style="fill:#ECEFF1;" cx="384" cy="96" rx="128" ry="80"/>
<ellipse style="fill:#F44336;" cx="384" cy="96" rx="32" ry="16"/>
<path style="fill:#455A64;" d="M240,80H16C7.168,80,0,87.168,0,96v128c0,44.864,56.224,80,128,80s128-35.136,128-80V96
	C256,87.168,248.832,80,240,80z"/>
<ellipse style="fill:#ECEFF1;" cx="128" cy="96" rx="128" ry="80"/>
<ellipse style="fill:#F44336;" cx="128" cy="96" rx="32" ry="16"/>
<path style="fill:#455A64;" d="M368,272H144c-8.832,0-16,7.168-16,16v128c0,44.864,56.224,80,128,80s128-35.136,128-80V288
	C384,279.168,376.832,272,368,272z"/>
<ellipse style="fill:#ECEFF1;" cx="256" cy="288" rx="128" ry="80"/>
<ellipse style="fill:#F44336;" cx="256" cy="288" rx="32" ry="16"/>
<g>
</g>
<g>
</g>
<g>
</g>
<g>
</g>
<g>
</g>
<g>
</g>
<g>
</g>
<g>
</g>
<g>
</g>
<g>
</g>
<g>
</g>
<g>
</g>
<g>
</g>
<g>
</g>
<g>
</g>
</svg>
